<svg id="Capa_1" data-name="Capa 1" xmlns="http://www.w3.org/2000/svg" viewBox="0 0 1000 254.35"><defs><style>.cls-1{fill:#3d82fb;}</style></defs><title>logo</title><path class="cls-1" d="M85.56,197v.83H195.65a24.49,24.49,0,0,1,24.49,24.49v31.85H24.49A24.5,24.5,0,0,1,0,229.67V197.82L135,71.06v-.83H24.49A24.5,24.5,0,0,1,0,45.74V14.31H195.65A24.48,24.48,0,0,1,220.14,38.8V70.23Z" transform="translate(0 -6.85)"/><path class="cls-1" d="M506.69,134a100.09,100.09,0,0,1-.89,13.46A128.44,128.44,0,0,1,503.12,161H297.68a69.53,69.53,0,0,0,27.19,34.8,75.87,75.87,0,0,0,43.22,12.84,100.54,100.54,0,0,0,41.67-8.9,76.32,76.32,0,0,0,18.81-11.78,24.43,24.43,0,0,1,28.6-2.43L488,204q-19.17,26.1-50.58,41.64t-69.3,15.53a152.61,152.61,0,0,1-54.59-9.73,143.63,143.63,0,0,1-44.78-26.72,125.92,125.92,0,0,1-30.31-40.19A115.13,115.13,0,0,1,227.27,134a115.18,115.18,0,0,1,11.14-50.54A126.14,126.14,0,0,1,268.72,43.3,140.71,140.71,0,0,1,313.5,16.79a155.4,155.4,0,0,1,54.59-9.53,146.57,146.57,0,0,1,97.82,36.87,125.11,125.11,0,0,1,29.86,40.19A115.29,115.29,0,0,1,506.69,134ZM439,110a69.61,69.61,0,0,0-27.18-34.8Q392.6,62.38,368.09,62.36A75.94,75.94,0,0,0,324.87,75.2,69.57,69.57,0,0,0,297.68,110Z" transform="translate(0 -6.85)"/><path class="cls-1" d="M762,38.8V254.16H729a24.5,24.5,0,0,1-24.49-24.49v-9.89h-.89q-10.26,17.4-30.52,29.41t-49.69,12q-22.29,0-40.56-7.45a91.83,91.83,0,0,1-31.41-20.92A95,95,0,0,1,531,200.51a112.45,112.45,0,0,1-7.35-41.21v-145h37.89A24.48,24.48,0,0,1,586,38.8v113a48.26,48.26,0,0,0,4.46,20.71,54.75,54.75,0,0,0,30.08,28.17,61.43,61.43,0,0,0,44.34,0,58.43,58.43,0,0,0,18-11.39,53.89,53.89,0,0,0,12.25-16.78,48.26,48.26,0,0,0,4.46-20.71V14.31h37.89A24.49,24.49,0,0,1,762,38.8Z" transform="translate(0 -6.85)"/><path class="cls-1" d="M888.14,210.66q18.72,1.25,30.53-5.18t15.38-14.91q3.56-8.49-2-16.78T910,162.2l-54.37-7.46q-32.08-4.56-51.69-22.78t-19.61-49.3a63.06,63.06,0,0,1,7.8-31.07,73.76,73.76,0,0,1,21.39-24q13.59-9.94,32.75-15.33a154.87,154.87,0,0,1,41.89-5.38,203.34,203.34,0,0,1,55.71,7.46A196.81,196.81,0,0,1,965,21.6a24.56,24.56,0,0,1,11.43,36.06l-13,20q-12.93-9.52-33.65-14.92a165.45,165.45,0,0,0-41.67-5.38q-20.49,0-30.74,6T845.59,77.07Q844,84.74,850,91.57t18.05,8.49l55.26,7.87a125.3,125.3,0,0,1,27,7.46,90.06,90.06,0,0,1,24.74,14.7,71.89,71.89,0,0,1,18,23q6.92,13.68,6.91,32.31a58.4,58.4,0,0,1-8.91,31.9,76.84,76.84,0,0,1-24.29,23.82A123,123,0,0,1,931.15,256a173.35,173.35,0,0,1-43,5.18,231,231,0,0,1-59.93-7.45,209.54,209.54,0,0,1-22.42-7.35,24.45,24.45,0,0,1-11.06-36.51l15-22q14.26,9.52,34.54,15.53A188.83,188.83,0,0,0,888.14,210.66Z" transform="translate(0 -6.85)"/></svg>